<?xml version="1.0" standalone="no"?>
<!DOCTYPE svg PUBLIC "-//W3C//DTD SVG 20010904//EN"
 "http://www.w3.org/TR/2001/REC-SVG-20010904/DTD/svg10.dtd">
<svg version="1.0" xmlns="http://www.w3.org/2000/svg"
 width="512.000000pt" height="512.000000pt" viewBox="0 0 512.000000 512.000000"
 preserveAspectRatio="xMidYMid meet">
<metadata>
Created by potrace 1.14, written by Peter Selinger 2001-2017
</metadata>
<g transform="translate(0.000000,512.000000) scale(0.100000,-0.100000)"
fill="#000000" stroke="none">
<path d="M1672 5018 c-103 -16 -193 -81 -243 -180 -32 -63 -37 -176 -11 -245
18 -49 19 -54 3 -71 -52 -60 -127 -146 -136 -156 -6 -6 -58 -75 -117 -152
-187 -250 -355 -517 -512 -816 -11 -20 -23 -35 -28 -32 -16 10 -148 12 -190 3
-155 -35 -285 -166 -323 -324 -11 -45 -12 -136 -2 -175 15 -58 24 -81 54 -132
55 -93 170 -176 268 -193 79 -13 70 4 111 -210 29 -149 59 -259 130 -480 30
-93 66 -197 79 -229 l24 -59 -29 -34 c-88 -100 -106 -243 -46 -360 31 -61 55
-86 122 -129 96 -61 243 -57 338 8 92 64 140 156 139 270 0 114 -47 201 -141
263 -36 24 -42 32 -38 54 3 14 8 46 11 71 4 25 10 61 15 80 5 19 16 82 25 140
10 58 20 110 24 117 6 11 25 -3 124 -94 84 -77 303 -249 346 -272 18 -10 25
-5 61 48 39 58 48 81 32 81 -7 0 -197 145 -255 195 -179 156 -279 253 -272
265 3 4 7 25 11 45 3 21 7 45 9 54 2 9 13 66 25 126 12 61 24 119 26 130 12
60 58 301 70 370 24 139 23 137 85 151 29 7 68 15 84 18 17 3 41 8 55 11 67
16 394 77 457 86 39 5 80 12 91 14 10 2 43 6 73 10 30 3 65 8 79 10 14 2 50 6
80 10 30 3 71 8 90 10 19 2 69 7 110 11 41 3 87 7 101 9 78 9 269 16 287 10
12 -3 22 -12 22 -20 0 -7 4 -15 9 -17 5 -1 57 -59 116 -128 59 -69 117 -136
129 -150 49 -57 269 -334 361 -454 l98 -129 -29 -25 c-60 -50 -71 -59 -159
-126 -49 -38 -96 -75 -104 -82 -11 -10 -6 -22 29 -70 24 -33 45 -61 46 -63 3
-3 130 87 179 126 6 5 36 30 68 56 33 26 62 47 67 47 4 0 28 -30 54 -68 25
-37 71 -103 102 -147 121 -172 224 -328 224 -340 0 -7 -7 -18 -16 -25 -21 -19
-62 -91 -86 -152 -43 -114 -14 -279 68 -384 170 -221 498 -222 666 -2 124 162
110 402 -31 547 -25 26 -61 56 -78 66 -21 12 -31 25 -28 35 2 8 6 28 9 44 3
16 10 52 15 80 19 94 22 111 25 136 2 14 9 61 15 105 6 44 13 105 16 135 3 30
7 73 10 95 4 30 17 518 15 582 0 6 14 16 31 22 52 18 128 80 156 128 79 135
60 287 -49 394 -40 41 -71 62 -110 75 -54 18 -152 24 -200 11 -25 -7 -30 -2
-75 65 -57 86 -190 263 -253 339 -57 67 -139 161 -154 174 -6 6 -32 33 -58 61
l-48 49 26 64 c71 177 7 393 -149 500 -209 142 -505 69 -614 -153 -19 -40 -32
-55 -43 -51 -8 3 -38 7 -65 10 -28 3 -57 8 -65 10 -16 4 -220 31 -305 39 -27
3 -77 8 -110 12 -144 15 -354 26 -523 28 l-144 2 -29 54 c-67 124 -193 188
-327 168z m763 -392 c61 -4 126 -9 145 -11 19 -2 70 -6 113 -10 43 -4 88 -8
100 -10 12 -2 47 -6 77 -10 115 -12 354 -46 359 -51 23 -21 -3 -36 -158 -90
-179 -62 -638 -240 -658 -256 -9 -7 -45 22 -125 100 -62 60 -129 124 -148 142
-19 18 -57 53 -85 79 l-50 46 14 41 14 41 146 -3 c80 -1 196 -5 256 -8z m-380
-337 c39 -36 94 -88 123 -114 28 -27 52 -53 51 -59 0 -8 -368 -196 -407 -208
-4 -1 -11 -6 -17 -11 -14 -12 -259 -146 -262 -143 -4 4 154 615 161 623 1 1
20 5 42 8 62 10 108 23 129 39 22 16 17 19 180 -135z m-536 24 c-30 -113 -119
-457 -124 -483 -2 -8 -8 -33 -14 -55 -6 -22 -12 -49 -14 -60 -15 -74 -21 -87
-48 -100 -36 -19 -331 -215 -433 -288 -61 -44 -82 -54 -92 -46 -14 11 -2 38
94 209 107 190 276 453 390 605 84 111 260 325 268 325 1 0 -10 -48 -27 -107z
m1800 -10 c67 -97 193 -164 316 -169 82 -3 188 22 235 56 27 19 35 21 53 10
29 -16 188 -192 272 -300 36 -47 72 -92 78 -100 40 -49 157 -219 157 -228 0
-6 5 -12 11 -14 8 -3 4 -19 -12 -46 l-24 -42 -80 6 c-44 3 -87 7 -95 9 -8 2
-60 7 -115 10 -55 4 -118 8 -140 10 -61 6 -390 18 -480 18 -46 0 -83 5 -87 11
-6 8 -8 8 -8 0 0 -7 -33 -11 -92 -11 -51 -1 -133 -2 -182 -3 l-89 -3 -56 60
c-133 142 -324 344 -389 410 l-70 72 32 15 c34 16 278 117 286 118 7 1 29 9
85 31 28 11 120 43 205 73 85 29 155 53 156 53 0 1 16 -20 33 -46z m-766 -505
c209 -218 267 -281 262 -286 -5 -5 -40 -9 -200 -22 -71 -6 -143 -13 -160 -15
-16 -2 -54 -6 -84 -10 -29 -3 -85 -10 -125 -16 -39 -5 -89 -12 -111 -15 -22
-2 -65 -9 -95 -14 -30 -5 -75 -12 -100 -15 -25 -4 -135 -25 -245 -47 -278 -57
-258 -54 -251 -32 5 18 46 204 46 211 0 2 5 3 12 3 6 0 19 6 27 14 9 7 41 26
71 42 30 16 57 32 60 35 3 3 19 12 35 21 44 22 148 80 160 88 11 8 277 144
285 146 3 0 52 24 110 52 58 28 108 51 111 52 4 0 90 -87 192 -192z m-1270
-464 l-16 -71 -46 -12 c-25 -6 -92 -24 -148 -40 -57 -15 -103 -25 -103 -22 1
3 18 17 38 30 20 14 93 62 161 107 69 46 126 83 127 81 1 -1 -5 -34 -13 -73z
m2452 22 c232 -10 250 -11 500 -32 33 -3 69 -7 80 -9 11 -2 30 -4 41 -4 16 -1
23 -9 27 -34 3 -18 15 -55 27 -81 l23 -47 -25 -27 c-13 -15 -53 -58 -87 -97
-35 -38 -68 -69 -75 -67 -6 2 -8 0 -3 -4 10 -10 -33 -55 -46 -47 -6 3 -7 1 -4
-4 8 -13 -329 -339 -362 -350 -3 -1 -44 48 -91 109 -102 135 -272 349 -314
399 -17 19 -49 57 -71 84 -22 26 -48 57 -59 69 -10 11 -35 41 -55 66 -20 25
-42 52 -50 60 -13 13 -11 16 20 20 45 7 313 4 524 -4z m-2520 -347 c-8 -41
-17 -85 -20 -99 -11 -57 -25 -127 -29 -150 -6 -35 -66 -343 -69 -354 -3 -7
-54 48 -201 214 -51 58 -51 57 -22 100 45 69 68 139 70 217 l1 72 70 20 c39
12 82 23 95 26 14 3 36 9 50 14 25 10 63 19 67 16 2 -1 -4 -35 -12 -76z m3389
23 c18 -5 18 -17 13 -271 -3 -146 -8 -284 -11 -306 -2 -22 -7 -74 -11 -115 -4
-41 -8 -77 -10 -80 -2 -3 -6 -36 -10 -75 -3 -38 -8 -72 -10 -75 -2 -3 -6 -21
-9 -40 -9 -57 -16 -92 -27 -147 l-10 -53 -42 -1 c-23 0 -51 -2 -62 -5 -11 -2
-32 -5 -47 -7 -16 -1 -28 -5 -28 -9 0 -22 -22 -1 -62 60 -79 121 -233 343
-314 453 -19 26 -34 51 -34 57 0 6 12 20 28 32 109 86 428 400 535 527 43 51
66 71 77 67 8 -3 23 -9 34 -12z m-3874 -459 c0 -5 12 -22 28 -38 15 -17 61
-69 102 -115 41 -47 103 -114 137 -150 56 -57 63 -69 58 -95 -2 -16 -7 -48
-11 -70 -3 -22 -12 -71 -19 -110 -17 -82 -26 -132 -30 -160 -30 -197 -47 -238
-76 -184 -16 30 -88 225 -104 284 -8 28 -26 91 -40 140 -14 50 -33 119 -41
155 -8 36 -17 74 -20 85 -2 11 -9 40 -14 65 -5 25 -12 56 -15 70 -3 14 -8 44
-12 67 -5 38 -3 44 18 52 30 12 39 13 39 4z"/>
<path d="M2551 2733 c-241 -50 -421 -270 -424 -518 -1 -100 16 -171 60 -256
189 -365 710 -386 933 -38 57 88 82 182 81 299 -2 233 -171 448 -399 510 -64
17 -179 19 -251 3z"/>
<path d="M2629 1555 c-2 -2 -29 -5 -59 -8 -175 -16 -328 -80 -440 -184 -58
-53 -114 -144 -125 -203 -3 -14 -8 -38 -11 -55 -4 -16 -8 -40 -10 -52 -1 -12
-5 -36 -9 -53 -4 -17 -8 -41 -10 -53 -1 -12 -10 -62 -19 -112 -8 -49 -18 -108
-21 -130 -4 -22 -8 -47 -10 -55 -2 -8 -7 -31 -10 -50 -6 -40 -23 -135 -29
-166 -2 -12 -7 -37 -10 -55 -3 -19 -7 -43 -9 -54 -3 -11 -10 -57 -17 -103 -8
-45 -17 -82 -21 -82 -19 0 6 -40 25 -41 90 -3 1657 -1 1661 2 4 5 -43 292
-109 654 -3 17 -19 111 -36 210 -43 251 -58 292 -145 380 -105 107 -263 180
-430 200 -85 9 -153 14 -156 10z"/>
</g>
</svg>
